<svg xmlns="http://www.w3.org/2000/svg" height="2048" preserveAspectRatio="none" style="display: block;" version="1.1" viewBox="0 0 2048 2048" width="2048">
<path d="M 0 0 L 2048 0 L 2048 2048 L 0 2048 L 0 0 z" fill="rgb(17,109,127)" transform="translate(0,0)"></path>
<path d="M 995.78 597.566 C 1231.89 582.005 1435.86 760.882 1451.26 996.999 C 1466.66 1233.12 1287.64 1436.97 1051.51 1452.2 C 815.617 1467.42 612.007 1288.62 596.625 1052.73 C 581.242 816.846 759.905 613.113 995.78 597.566 z" fill="rgb(234,240,236)" transform="translate(0,0)"></path>
<path d="M 1001.76 656.425 C 1205.15 643.973 1380.17 798.66 1392.8 1002.04 C 1405.44 1205.42 1250.91 1380.57 1047.54 1393.39 C 843.916 1406.22 668.491 1251.45 655.842 1047.81 C 643.194 844.18 798.118 668.892 1001.76 656.425 z" fill="rgb(17,109,127)" transform="translate(0,0)"></path>
<path d="M 1016.36 819.327 C 1130.22 814.688 1226.31 903.182 1231.04 1017.04 C 1235.76 1130.9 1147.34 1227.05 1033.49 1231.86 C 919.512 1236.68 823.233 1148.14 818.502 1034.16 C 813.771 920.183 902.381 823.971 1016.36 819.327 z" fill="rgb(234,240,236)" transform="translate(0,0)"></path>
<path d="M 1013.71 862.628 C 1103.77 856.539 1181.7 924.652 1187.72 1014.72 C 1193.73 1104.78 1125.55 1182.65 1035.48 1188.59 C 945.517 1194.53 867.757 1126.45 861.749 1036.49 C 855.741 946.527 923.757 868.711 1013.71 862.628 z" fill="rgb(17,109,127)" transform="translate(0,0)"></path>
<path d="M 1016.7 961.546 C 1051.35 956.775 1083.28 981.069 1087.93 1015.74 C 1092.57 1050.41 1068.16 1082.25 1033.48 1086.77 C 998.969 1091.26 967.325 1067.01 962.704 1032.52 C 958.083 998.025 982.225 966.293 1016.7 961.546 z" fill="rgb(13,169,180)" transform="translate(0,0)"></path>
<metadata><recraft-signature>{"signed_by": "recraft", "signature_b64": "+0mbX4uRVvm0g+oKiDsrkKy/0b88Ve8KavOocBVow3H+/X1QFF6/f7Mw+MtWaO+hjy1x2zVezbg02UgdntubBg==", "signing_algo": "Ed25519", "generation_timestamp": 1781912877, "identifier": "58318295-1620-4352-95cb-44e816c2262c"}</recraft-signature></metadata></svg>