<svg xmlns="http://www.w3.org/2000/svg" height="2048" preserveAspectRatio="none" style="display: block;" version="1.1" viewBox="0 0 2048 2048" width="2048">
<path d="M 0 0 L 349.127 0 L 1699.5 0 L 2048 0 L 2048 346.269 L 2048 1701.72 L 2048 2048 L 1701.46 2048 L 349.54 2048 L 0 2048 L 0 1701.55 L 0 346.313 L 0 0 z" fill="rgb(24,106,132)" transform="translate(0,0)"></path>
<path d="M 0 1701.55 C 3.19632 1723.66 3.68837 1738.18 9.1471 1760.99 C 29.9787 1846.22 79.7179 1921.6 149.89 1974.27 C 194.119 2007.25 245.124 2029.99 299.219 2040.85 C 315.962 2044.11 335.265 2045.17 349.54 2048 L 0 2048 L 0 1701.55 z" fill="rgb(247,249,251)" transform="translate(0,0)"></path>
<path d="M 2048 1701.72 L 2048 2048 L 1701.46 2048 C 1714.39 2045.51 1730.9 2044.51 1745.84 2041.63 C 1799.39 2031.41 1850.03 2009.48 1894.13 1977.42 C 1965.94 1925.13 2017.05 1849.23 2038.51 1763.03 C 2044.32 1738.96 2044.51 1724.71 2048 1701.72 z" fill="rgb(247,249,251)" transform="translate(0,0)"></path>
<path d="M 0 0 L 349.127 0 C 325.202 3.34562 309.945 3.69023 285.073 9.67341 C 201.629 30.2735 127.679 78.6589 75.388 146.871 C 36.3235 198.672 9.13876 262.479 2.31559 327.325 C 1.70759 333.103 1.09708 340.747 0 346.313 L 0 0 z" fill="rgb(247,249,251)" transform="translate(0,0)"></path>
<path d="M 1699.5 0 L 2048 0 L 2048 346.269 C 2047.07 341.217 2046.8 335.142 2046.24 329.897 C 2038.98 262.512 2012.43 199.428 1971.3 145.413 C 1917.91 75.5832 1841.48 26.9571 1755.61 8.18532 C 1736.27 3.84296 1718.85 2.60823 1699.5 0 z" fill="rgb(247,249,251)" transform="translate(0,0)"></path>
<path d="M 764.677 1231.39 C 798.171 1230.02 841.928 1231.18 875.979 1231.16 L 1090.44 1231.07 L 1220.67 1231.08 C 1257.19 1231.1 1296.72 1225.29 1327.2 1248.4 C 1343.27 1260.51 1353.79 1278.58 1356.36 1298.54 C 1358.83 1318.36 1353.4 1338.35 1341.25 1354.2 C 1326.55 1373.45 1308.21 1381.91 1284.85 1385.06 C 1168.3 1385.85 1051.75 1386.03 935.2 1385.62 L 820.647 1385.63 C 785.989 1385.59 749.516 1390.71 720.634 1368.36 C 704.615 1356.01 694.256 1337.72 691.902 1317.63 C 686.163 1271.01 719.68 1236.51 764.677 1231.39 z" fill="rgb(247,249,251)" transform="translate(0,0)"></path>
<path d="M 914.57 1041.37 C 926.874 1040.13 963.895 1041.15 977.667 1041.19 L 1107.7 1041.4 L 1221.45 1041.39 C 1236.57 1041.31 1272.76 1040.14 1286.56 1041.88 C 1300.23 1043.67 1313.24 1048.86 1324.39 1056.97 C 1340.47 1068.84 1351.81 1086.7 1354.75 1106.56 C 1357.78 1126.71 1352.51 1147.23 1340.15 1163.43 C 1324.89 1183.33 1307.16 1192.02 1282.87 1195.09 C 1255 1196.56 1221.54 1195.62 1193.06 1195.58 L 1042.59 1195.36 L 963.582 1195.42 C 931.007 1195.61 898.341 1200.04 871.19 1178.72 C 854.97 1165.84 844.552 1147.02 842.242 1126.44 C 837.146 1081.06 870.556 1046.31 914.57 1041.37 z" fill="rgb(247,249,251)" transform="translate(0,0)"></path>
<path d="M 1107.08 850.49 L 1228.1 850.315 C 1265.85 850.3 1305.08 843.739 1334.43 871.952 C 1349.2 886.064 1357.61 905.572 1357.72 926.002 C 1357.8 946.608 1349.53 966.366 1334.78 980.761 C 1311.91 1003.47 1289.73 1003.85 1260.26 1003.88 L 1143.39 1003.96 C 1104.29 1003.97 1059.6 1010.84 1029.57 981.277 C 1015.24 966.991 1007.16 947.61 1007.09 927.376 C 1007.23 907.182 1015.34 887.86 1029.65 873.61 C 1053.29 850.289 1076.8 850.492 1107.08 850.49 z" fill="rgb(247,249,251)" transform="translate(0,0)"></path>
<path d="M 1270.93 663.159 C 1312.9 659.063 1350.22 689.784 1354.28 731.751 C 1358.33 773.717 1327.57 811.013 1285.6 815.023 C 1243.69 819.026 1206.46 788.321 1202.41 746.415 C 1198.37 704.51 1229.03 667.249 1270.93 663.159 z" fill="rgb(163,202,196)" transform="translate(0,0)"></path>
<metadata><recraft-signature>{"signed_by": "recraft", "signature_b64": "uzMKe/2RXH1s4QAMkr5MdutbVIkZnoilekhckBNOinuLm0Siy1k5mBeoBkTihu2BoJlkURGG1m3bepBwMG8jBg==", "signing_algo": "Ed25519", "generation_timestamp": 1781910983, "identifier": "a934a26f-d7e6-4f5e-98b2-e7318dab6e78"}</recraft-signature></metadata></svg>