<svg xmlns="http://www.w3.org/2000/svg" height="2048" preserveAspectRatio="none" style="display: block;" version="1.1" viewBox="0 0 2048 2048" width="2048">
<path d="M 0 0 L 373.49 0 L 1687.5 0 L 2048 0 L 2048 375.376 L 2048 1673.27 L 2048 2048 L 1667.79 2048 L 376.501 2048 L 0 2048 L 0 1673.92 L 0 376.418 L 0 0 z" fill="rgb(235,231,225)" transform="translate(0,0)"></path>
<path d="M 1667.79 2048 C 1681.38 2045.51 1701.97 2044.78 1718.12 2042.04 C 1776.84 2031.87 1832.51 2008.57 1880.96 1973.88 C 1978.53 1904.3 2039.6 1792.89 2047.74 1674.45 C 2047.83 1674.05 2047.91 1673.66 2048 1673.27 L 2048 2048 L 1667.79 2048 z" fill="rgb(252,252,253)" transform="translate(0,0)"></path>
<path d="M 0 1673.92 C 2.44277 1697.45 4.98476 1719.44 10.5198 1742.49 C 31.7073 1828.33 80.4103 1904.86 149.189 1960.41 C 207.088 2007.42 279.171 2037.65 352.901 2045.18 C 360.734 2045.98 368.724 2046.81 376.501 2048 L 0 2048 L 0 1673.92 z" fill="rgb(252,252,253)" transform="translate(0,0)"></path>
<path d="M 1687.5 0 L 2048 0 L 2048 375.376 C 2046.2 362.077 2045.31 348.817 2043.19 335.485 C 2036.77 295.493 2024.39 256.692 2006.44 220.382 C 1957.53 123.576 1871.64 50.5919 1768.21 17.9509 C 1753.63 13.3444 1740.33 10.035 1725.29 7.15232 C 1714.49 5.08102 1697.28 3.61045 1687.5 0 z" fill="rgb(252,252,253)" transform="translate(0,0)"></path>
<path d="M 0 0 L 373.49 0 C 266.991 7.40447 167.764 56.7024 97.5301 137.102 C 54.6705 187.112 20.4407 252.026 7.71049 317.012 C 5.2161 329.663 3.25605 342.413 1.83556 355.229 C 1.22308 361.025 0.831714 371.399 0 376.418 L 0 0 z" fill="rgb(252,252,253)" transform="translate(0,0)"></path>
<path d="M 1163.97 954.569 L 1163.75 880.255 C 1163.72 864.785 1163.29 845.875 1164.6 830.597 C 1168 786.66 1187.05 745.399 1218.28 714.306 C 1274.4 657.861 1328.56 660.214 1400.12 660.22 L 1499.27 660.294 C 1514.74 660.317 1530.78 660.117 1546.11 661.926 C 1587.52 666.95 1626.04 685.768 1655.45 715.349 C 1679.73 739.854 1696.74 770.619 1704.57 804.216 C 1712.35 836.61 1710.03 898.814 1709.97 934.719 L 1709.89 1091.36 L 1709.72 1112.42 C 1709.85 1118.89 1710.1 1128.08 1709.73 1134.44 L 1709.64 1417.2 C 1709.63 1417.97 1709.62 1418.74 1709.61 1419.51 C 1709.53 1436.2 1710.06 1461.77 1708.42 1477.63 C 1703.73 1520.06 1684.61 1559.59 1654.26 1589.61 C 1625.87 1618.24 1589.3 1637.38 1549.59 1644.39 C 1524.83 1648.56 1467.56 1646.98 1439.44 1646.98 L 1239.37 1646.99 L 496.126 1647 C 480.477 1647 459.81 1647.46 444.504 1645.92 C 398.842 1641.15 356.248 1620.69 323.982 1588.03 C 249.83 1513.3 249.483 1384.74 324.617 1310.55 C 349.497 1285.85 380.591 1268.34 414.608 1259.87 C 449.596 1251.27 510.405 1254.02 548.827 1253.99 L 710.854 1253.92 C 711.018 1215.66 709.219 1165.41 711.219 1128.24 C 713.945 1079.1 736.126 1033.08 772.86 1000.33 C 795.897 979.704 823.916 965.438 854.151 958.945 C 880.184 953.117 907.946 954.195 934.614 954.178 L 1014.44 954.166 L 1110.05 954.125 C 1127.03 954.134 1147.41 953.639 1163.97 954.569 z" fill="rgb(2,161,174)" transform="translate(0,0)"></path>
<path d="M 1163.97 954.569 L 1163.75 880.255 C 1163.72 864.785 1163.29 845.875 1164.6 830.597 C 1168 786.66 1187.05 745.399 1218.28 714.306 C 1274.4 657.861 1328.56 660.214 1400.12 660.22 L 1499.27 660.294 C 1514.74 660.317 1530.78 660.117 1546.11 661.926 C 1587.52 666.95 1626.04 685.768 1655.45 715.349 C 1679.73 739.854 1696.74 770.619 1704.57 804.216 C 1712.35 836.61 1710.03 898.814 1709.97 934.719 L 1709.89 1091.36 L 1709.72 1112.42 C 1709.85 1118.89 1710.1 1128.08 1709.73 1134.44 L 1709.64 1417.2 C 1708.61 1418.07 1709.1 1418.18 1708.05 1417.93 C 1706.73 1415.79 1708.71 1414.06 1706.36 1412.95 C 1692.09 1337.35 1628 1271.61 1552.31 1257.73 C 1519.95 1251.8 1477.43 1253.83 1443.84 1253.85 L 1293.48 1253.8 L 710.854 1253.92 C 711.018 1215.66 709.219 1165.41 711.219 1128.24 C 713.945 1079.1 736.126 1033.08 772.86 1000.33 C 795.897 979.704 823.916 965.438 854.151 958.945 C 880.184 953.117 907.946 954.195 934.614 954.178 L 1014.44 954.166 L 1110.05 954.125 C 1127.03 954.134 1147.41 953.639 1163.97 954.569 z" fill="rgb(1,121,139)" transform="translate(0,0)"></path>
<path d="M 1163.97 954.569 L 1163.75 880.255 C 1163.72 864.785 1163.29 845.875 1164.6 830.597 C 1168 786.66 1187.05 745.399 1218.28 714.306 C 1274.4 657.861 1328.56 660.214 1400.12 660.22 L 1499.27 660.294 C 1514.74 660.317 1530.78 660.117 1546.11 661.926 C 1587.52 666.95 1626.04 685.768 1655.45 715.349 C 1679.73 739.854 1696.74 770.619 1704.57 804.216 C 1712.35 836.61 1710.03 898.814 1709.97 934.719 L 1709.89 1091.36 L 1709.72 1112.42 C 1708.38 1118.08 1709.07 1129.3 1708.3 1130.37 C 1707.45 1130.45 1707.16 1128.63 1706.98 1128.08 C 1706.77 1127.44 1706.55 1126.79 1706.32 1126.16 C 1700.75 1084.67 1682.56 1045.89 1654.23 1015.08 C 1628.79 987.427 1595.65 968.048 1559.07 959.447 C 1524.49 951.126 1459.45 954.495 1421.92 954.712 C 1359.23 955.048 1296.54 954.874 1233.85 954.19 C 1212.1 954.032 1184.85 955.455 1163.97 954.569 z" fill="rgb(3,77,95)" transform="translate(0,0)"></path>
<path d="M 1706.32 1126.16 C 1706.55 1126.79 1706.77 1127.44 1706.98 1128.08 C 1707.16 1128.63 1707.45 1130.45 1708.3 1130.37 C 1709.07 1129.3 1708.38 1118.08 1709.72 1112.42 C 1709.85 1118.89 1710.1 1128.08 1709.73 1134.44 C 1709.38 1136.12 1709.06 1141.36 1708.39 1142.29 C 1708.53 1141.74 1708.67 1141.19 1708.81 1140.64 L 1707.77 1140.16 C 1708.14 1135.72 1706.89 1130.68 1706.32 1126.16 z" fill="rgb(3,90,108)" transform="translate(0,0)"></path>
<path d="M 1706.36 1412.95 C 1708.71 1414.06 1706.73 1415.79 1708.05 1417.93 C 1709.1 1418.18 1708.61 1418.07 1709.64 1417.2 C 1709.63 1417.97 1709.62 1418.74 1709.61 1419.51 C 1709.43 1420.32 1708.56 1425.5 1708.46 1425.61 C 1707.45 1422.63 1706.77 1416.11 1706.36 1412.95 z" fill="rgb(2,130,148)" transform="translate(0,0)"></path>
<path d="M 1427.72 302.895 C 1500.55 294.276 1566.56 346.365 1575.11 419.2 C 1583.66 492.035 1531.51 557.996 1458.67 566.479 C 1385.92 574.95 1320.07 522.884 1311.53 450.145 C 1302.99 377.407 1354.99 311.503 1427.72 302.895 z" fill="rgb(2,161,174)" transform="translate(0,0)"></path>
<metadata><recraft-signature>{"signed_by": "recraft", "signature_b64": "n5QB4dYCAE6l2X3zlncvlpxfKmfo8Z1ycLISsANpwyAsS4XZjdLF7a6A1EdC4IO6sU4pATpai61PRq421uJnCQ==", "signing_algo": "Ed25519", "generation_timestamp": 1781910956, "identifier": "31e96bdf-de61-422b-b5a7-aaaddfbf2c6f"}</recraft-signature></metadata></svg>