<svg xmlns="http://www.w3.org/2000/svg" height="2048" preserveAspectRatio="none" style="display: block;" version="1.1" viewBox="0 0 2048 2048" width="2048">
<path d="M 0 0 L 2048 0 L 2048 2048 L 0 2048 L 0 0 z" fill="rgb(4,153,163)" transform="translate(0,0)"></path>
<path d="M 1014.1 618.108 C 1031.14 616.553 1045.55 618.188 1059.38 629.827 C 1065.15 634.726 1069.9 640.717 1073.34 647.454 C 1079.77 659.759 1087.69 683.919 1093.69 698.094 C 1105.55 725.549 1119.01 752.284 1134.01 778.161 C 1159.99 823.394 1188.33 867.227 1218.92 909.48 C 1242 941.627 1268.16 972.081 1285.87 1007.39 C 1302.98 1041.5 1314.8 1082.79 1317.34 1121 C 1323.03 1197.53 1297.25 1273.06 1245.98 1330.16 C 1193.16 1389.5 1118.86 1425.34 1039.54 1429.73 C 1018.41 1430.96 989.9 1429.63 968.716 1425.13 C 941.05 1419.6 914.273 1410.31 889.134 1397.5 C 819.574 1361.91 766.979 1300.18 742.898 1225.84 C 713.35 1133.08 734.91 1034.24 793.607 958.632 C 803.796 945.508 813.819 931.59 823.486 918.086 C 847.585 884.766 870.457 850.576 892.056 815.584 C 926.243 759.901 954.252 706.733 977.032 645.74 C 982.599 630.836 999.431 622.622 1014.1 618.108 z" fill="rgb(252,252,251)" transform="translate(0,0)"></path>
<path d="M 1014.1 618.108 C 1031.14 616.553 1045.55 618.188 1059.38 629.827 C 1065.15 634.726 1069.9 640.717 1073.34 647.454 C 1079.77 659.759 1087.69 683.919 1093.69 698.094 C 1105.55 725.549 1119.01 752.284 1134.01 778.161 C 1159.99 823.394 1188.33 867.227 1218.92 909.48 C 1242 941.627 1268.16 972.081 1285.87 1007.39 C 1302.98 1041.5 1314.8 1082.79 1317.34 1121 C 1323.03 1197.53 1297.25 1273.06 1245.98 1330.16 C 1193.16 1389.5 1118.86 1425.34 1039.54 1429.73 C 1018.41 1430.96 989.9 1429.63 968.716 1425.13 C 978.828 1423.35 988.497 1423.4 998.595 1422.33 C 1012.01 1420.91 1026.62 1418.27 1039.7 1414.93 C 1115.28 1396.05 1180.08 1347.54 1219.49 1280.34 C 1256.85 1215.6 1266.87 1138.64 1247.34 1066.5 C 1228.11 993.824 1183.82 950.836 1143.8 889.338 C 1109.68 836.89 1078.07 787.053 1053.94 728.801 C 1042.12 702.651 1034.68 675.099 1025.51 648.006 C 1023.05 640.734 1019.7 621.373 1014.1 618.108 z" fill="rgb(211,235,235)" transform="translate(0,0)"></path>
<metadata><recraft-signature>{"signed_by": "recraft", "signature_b64": "13Otf5j3OCtwFWQ3AS9YLOAK54SiUJWDaTKXTfJLHpw4amo1l+Beiaz+yMMMLssGWZtwzqGdmocgmmpsaMMfDA==", "signing_algo": "Ed25519", "generation_timestamp": 1781912854, "identifier": "1ffaea64-72d2-4a11-8715-0c255a7d0b15"}</recraft-signature></metadata></svg>