<svg xmlns="http://www.w3.org/2000/svg" height="2048" preserveAspectRatio="none" style="display: block;" version="1.1" viewBox="0 0 2048 2048" width="2048">
<path d="M 0 0 L 2048 0 L 2048 2048 L 0 2048 L 0 0 z" fill="rgb(20,124,136)" transform="translate(0,0)"></path>
<path d="M 1028.26 511.965 C 1031.11 513.519 1031.73 513.453 1035.04 513.667 L 1036.75 513.768 C 1033.52 513.919 1031.47 513.427 1029.22 514.939 C 1031.92 516.354 1044.4 515.074 1049.13 515.146 C 1067.22 515.421 1084.46 517.638 1102.38 519.856 C 1099.97 520.698 1098.8 521.249 1096.49 522.373 C 1101.88 525.1 1110.4 522.042 1116.09 522.875 C 1148.55 527.626 1180.24 537.168 1210.91 548.646 C 1218.35 551.432 1225.48 556.917 1232.36 559.445 L 1230.83 556.404 C 1232.1 556.684 1233.94 558.617 1235.1 559.63 C 1238.01 559.926 1239.77 559.751 1241.96 561.636 C 1239.6 562.566 1239.57 562.075 1238.44 563.604 C 1242.04 564.247 1240.11 561.876 1242.04 562.668 C 1248.09 565.147 1255.91 571.422 1261.52 574.329 C 1263.72 575.47 1271.17 576.828 1273.77 577.491 L 1271.99 578.441 C 1290.71 589.623 1310.05 600.597 1327.95 613.136 C 1338.88 621.026 1349.28 632.301 1359.97 640.212 C 1378.94 654.242 1391.5 670.076 1406.5 687.624 C 1416.61 699.447 1426.06 708.083 1435.24 721.405 L 1433.23 720.754 C 1433.95 721.036 1434.67 721.318 1435.4 721.601 L 1432.92 720.817 L 1432.3 723.09 L 1433.4 724.477 C 1436.49 724.624 1436.46 724.44 1439.19 725.778 C 1445.64 738.98 1451.01 740.585 1456.56 750.583 C 1463.97 763.943 1471.27 777.468 1479.14 790.696 C 1482.22 795.957 1484.12 803.531 1487.07 808.671 C 1496.72 823.569 1500.19 840.08 1506.55 855.886 C 1514.39 875.394 1520.58 894.527 1525.08 915.208 C 1528.52 931.044 1530.62 947.978 1533.34 964.007 C 1534.48 970.771 1533.53 979.109 1534.87 986.068 C 1534.82 988.017 1537.17 993.887 1537.04 995.195 C 1536.26 1003.33 1536.28 1007.7 1537.17 1015.39 C 1539.1 1032.01 1537.03 1051.18 1535.53 1067.74 C 1528.53 1144.82 1504.76 1217.4 1464.45 1283.52 C 1405.73 1382.45 1309.97 1461.33 1202.54 1502.19 C 1190.44 1506.78 1166.76 1513.33 1153.95 1516.73 L 1154.37 1516.72 C 1122.19 1526.17 1088.97 1530.83 1055.56 1532.5 L 1056.48 1532.61 C 1049.15 1533.69 1036.86 1534.84 1029.59 1534.3 L 1019.25 1533.57 C 1010.02 1533.36 1003.27 1534.31 993.03 1533.8 C 994.007 1533.52 1005.21 1533.24 1007.03 1533.18 C 995.862 1531.75 983.995 1532.26 972.695 1531.25 C 914.776 1526.08 861.425 1510.45 808.578 1486.34 C 796.354 1480.76 784.469 1474.75 772.028 1469.66 L 770.895 1466.76 C 764.922 1461.44 757.111 1458.99 750.456 1454.85 C 744.099 1450.88 745.226 1447.7 736.923 1446.36 C 738.723 1445.72 738.06 1446.25 739.055 1444.97 C 726.83 1438.9 716.577 1429.74 705.336 1422.11 C 700.926 1419.12 696.01 1416.96 691.944 1413.45 C 685.469 1407.87 680.62 1400.19 674.347 1394.24 C 661.24 1381.82 648.161 1369.9 636.095 1356.34 C 631.212 1350.86 627.136 1344.37 622.657 1338.53 C 590.673 1296.81 562.71 1251.28 544.927 1201.59 C 539.321 1185.92 533.704 1169.73 529.546 1153.61 C 527.907 1147.25 528.009 1139.4 525.83 1133.47 C 525.029 1131.3 523.316 1129.74 522.594 1127.55 C 521.47 1124.13 521.947 1119.42 521.521 1115.79 C 520.417 1106.41 518.28 1097 517.101 1087.56 C 505.799 996.988 519.179 898.277 558.585 815.541 C 569.79 792.015 581.64 766.389 595.893 744.517 C 599.777 738.557 604.511 733.055 608.727 727.317 C 611.103 724.083 612.783 720.246 615.276 717.163 C 620.962 710.133 628.821 704.703 634.686 697.802 C 637.904 694.016 638.903 688.663 642.271 684.882 C 656.359 669.066 675.547 650.274 692.336 637.437 C 696.102 634.558 700.582 632.505 704.435 629.61 C 713.454 622.832 722.321 611.171 733.064 607.584 C 737.314 606.165 738.206 604.505 740.632 600.83 L 741.445 599.578 C 744.558 599.441 746.121 599.362 749.269 598.81 C 752.662 593.422 748.021 599.01 749.817 592.93 C 756.234 589.566 774.788 576.609 778.614 575.543 L 775.013 579.315 L 777.868 578.348 L 776.215 579.344 C 778.495 577.614 785.713 576.848 788.279 573.474 C 789.708 571.596 787.207 570.075 791.65 568.717 C 801.648 565.663 815.187 563.521 824.048 558.065 L 824.16 556.759 L 821.507 555.215 C 833.757 552.225 846.883 544.126 859.584 540.49 C 866.635 538.471 869.358 540.609 876.147 539.707 C 880.022 539.192 886.132 534.877 890.302 533.891 C 901.664 530.202 913.422 526.601 924.764 522.942 C 928.858 521.621 945.402 522.604 949.34 521.021 C 973.014 511.508 998.646 518.32 1020.35 514.572 C 1012.5 514.364 1006.94 514.841 998.02 514.332 C 1004.71 514.116 1023.24 514.223 1028.26 511.965 z" fill="rgb(34,132,145)" transform="translate(0,0)"></path>
<path d="M 996.435 535.189 C 1266.76 519.813 1498.27 726.721 1513.22 997.072 C 1528.18 1267.42 1320.91 1498.6 1050.53 1513.14 C 780.756 1527.64 550.194 1320.93 535.271 1051.17 C 520.348 781.415 726.703 550.532 996.435 535.189 z" fill="rgb(205,223,207)" transform="translate(0,0)"></path>
<path d="M 1020.21 541.566 C 1286.49 539.34 1504.24 753.212 1506.81 1019.48 C 1509.37 1285.75 1295.78 1503.78 1029.51 1506.68 C 762.763 1509.59 544.257 1295.53 541.687 1028.78 C 539.117 762.03 753.459 543.796 1020.21 541.566 z" fill="rgb(20,124,136)" transform="translate(0,0)"></path>
<path d="M 1022.87 707.053 C 1023.16 706.06 1023.99 701.409 1024.85 701.222 C 1025.15 701.405 1025.44 701.588 1025.73 701.771 L 1025.84 702.987 C 1028.51 729.83 1041.11 760.279 1053.2 784.281 C 1112.48 901.981 1259.18 977.208 1241.9 1126.86 C 1236.99 1169.42 1219.79 1207.24 1192.9 1240.45 C 1156.48 1284.9 1104.11 1313.33 1046.99 1319.66 C 988.941 1326.25 930.729 1308.75 885.927 1271.25 C 840.461 1234 811.697 1180.17 805.984 1121.67 C 791.812 961.575 970.144 881.351 1014.9 741.952 C 1017.91 732.567 1022.75 716.891 1022.87 707.053 z" fill="rgb(248,248,250)" transform="translate(0,0)"></path>
<path d="M 1024.78 688.993 C 1025.27 692.015 1026.16 698.76 1025.73 701.771 C 1025.44 701.588 1025.15 701.405 1024.85 701.222 C 1023.99 701.409 1023.16 706.06 1022.87 707.053 C 1022.87 705.301 1022.79 703.223 1023.05 701.507 L 1024.78 688.993 z" fill="rgb(34,132,145)" transform="translate(0,0)"></path>
<metadata><recraft-signature>{"signed_by": "recraft", "signature_b64": "TkxmplIHuK3AmeB8+7EzsUfdiEU4BEpOrm51PajMu8RBD534sWtDeggS4EDv0TugeqUaNwMWyzZ4LigpAxJSCw==", "signing_algo": "Ed25519", "generation_timestamp": 1781912902, "identifier": "9d54fa6a-3dc9-4803-821f-096ec80d20eb"}</recraft-signature></metadata></svg>